PathFileType	4	(X/Y/Z)	D:\TRACE\v60_Jaco2_6-2-23\v60_baseline_4-platform.trc
DataRate	CameraRate	NumFrames	NumMarkers	Units	OrigDataRate	OrigDataStartFrame	OrigNumFrames
100.00	100.00	      30	5	mm	100.00	4063	      6500
Frame#	Time	Left_Front			Right_Front			Left_Aft			Right_Aft			Post			
		X1	Y1	Z1	X2	Y2	Z2	X3	Y3	Z3	X4	Y4	Z4	X5	Y5	Z5	

4063	40.620	-800.59875	8.78058	-638.83466	769.36304	10.14747	-644.42334	-708.73737	7.96192	496.13608	733.20874	6.83447	505.58884	-14.07025	1308.10107	-961.41748	
4064	40.630	-800.54199	8.84027	-638.82825	769.30298	10.22840	-644.42847	-708.70581	7.99735	496.12756	733.21033	6.84569	505.59409	-14.04590	1308.19067	-961.58051	
4065	40.640	-800.50848	8.94453	-638.86469	769.35425	10.27590	-644.41882	-708.67145	8.05950	496.16165	733.33655	6.89240	505.55746	-13.96750	1308.28552	-961.89465	
4066	40.650	-800.60852	8.86645	-638.77380	769.40344	10.25345	-644.43286	-708.67950	7.98338	496.18832	733.45135	6.98792	505.57266	-14.08203	1308.35632	-962.12256	
4067	40.660	-800.62146	8.84015	-638.83252	769.46381	10.25329	-644.34100	-708.75391	7.95830	496.17337	733.37994	6.92539	505.57977	-13.97630	1308.31921	-962.22601	
4068	40.670	-800.62201	8.73784	-638.81757	769.41046	10.18052	-644.37842	-708.76593	7.93243	496.14261	733.31555	6.84581	505.60999	-13.98916	1308.18652	-962.16705	
4069	40.680	-800.56641	8.72423	-638.87030	769.38000	10.16321	-644.39227	-708.65710	7.92942	496.14719	733.74701	7.14799	505.98865	-14.01832	1308.09583	-962.06836	
4070	40.690	-800.55951	8.80624	-638.81732	769.41937	10.15232	-644.38922	-708.67639	7.98942	496.13199	733.54590	7.01754	505.88239	-14.08794	1308.14355	-961.93695	
4071	40.700	-800.59131	8.89212	-638.73285	769.35291	10.23112	-644.45728	-708.68579	8.05513	496.13263	733.54932	7.00107	505.81686	-13.98739	1308.17297	-961.81128	
4072	40.710	-800.65686	8.83228	-638.77081	769.35413	10.27977	-644.43286	-708.75940	8.06599	496.14407	733.56592	7.01873	505.84750	-14.03995	1308.21753	-961.75696	
4073	40.720	-800.64038	8.78712	-638.79242	769.44537	10.22014	-644.38965	-708.73804	7.92447	496.14667	733.51581	6.94359	505.82999	-14.01235	1308.19373	-961.65558	
4074	40.730	-800.59668	8.67415	-638.87885	769.43158	10.15962	-644.38489	-708.75079	7.94425	496.14044	733.41589	6.92197	505.90961	-14.05209	1308.22632	-961.66833	
4075	40.740	-800.56238	8.80641	-638.86804	769.41077	10.15742	-644.36682	-708.67346	7.92053	496.16180	733.48041	6.93185	505.89346	-14.04473	1308.20630	-961.64343	
4076	40.750	-800.56549	8.88905	-638.79205	769.37244	10.21802	-644.40283	-708.65948	7.98614	496.13309	733.54358	6.96615	505.86420	-14.01583	1308.24170	-961.66760	
4077	40.760	-800.58313	8.86515	-638.74585	769.38507	10.24584	-644.44092	-708.66534	7.97632	496.18240	733.58582	6.99007	505.83221	-14.10151	1308.26892	-961.77161	
4078	40.770	-800.66351	8.83245	-638.77344	769.33844	10.25293	-644.45856	-708.72766	7.96704	496.18198	733.52295	6.96951	505.83859	-14.02317	1308.22766	-961.73688	
4079	40.780	-800.61224	8.72291	-638.80823	769.39935	10.20806	-644.39978	-708.76746	7.96783	496.12546	733.44031	6.94018	505.84637	-13.96611	1308.11584	-961.68604	
4080	40.790	-800.54114	8.76201	-638.86847	769.36316	10.15036	-644.43781	-708.73199	8.01378	496.09610	733.44226	6.96625	505.86172	-13.99388	1308.16199	-961.83032	
4081	40.800	-800.52399	8.79773	-638.86359	769.32751	10.18154	-644.40894	-708.70081	8.02285	496.12387	733.46790	6.97161	505.85928	-14.05006	1308.15698	-961.93402	
4082	40.810	-800.61304	8.88832	-638.78912	769.42401	10.18717	-644.39728	-708.69208	8.03886	496.15341	733.53802	6.97717	505.83676	-14.06441	1308.19507	-962.08350	
4083	40.820	-800.65784	8.87278	-638.69409	769.39130	10.24192	-644.41199	-708.71045	7.95496	496.16034	733.57343	7.01045	505.84143	-14.02525	1308.23523	-962.13617	
4084	40.830	-800.65125	8.77471	-638.77637	769.37616	10.21363	-644.41888	-708.75885	7.96119	496.20547	733.48895	7.00315	505.86053	-14.01244	1308.22119	-962.11615	
4085	40.840	-800.50989	8.91261	-638.81097	769.37250	10.26995	-644.45544	-708.75330	7.98089	496.16815	733.43292	6.94203	505.89218	-13.96172	1308.22986	-962.05121	
4086	40.850	-800.42828	9.11207	-638.83252	769.37415	10.26523	-644.42310	-708.73511	8.03535	496.16763	733.44067	6.92766	505.91806	-14.01795	1308.31702	-961.84070	
4087	40.860	-800.48364	9.11763	-638.82788	769.41241	10.16272	-644.39148	-708.81128	8.09996	496.12759	733.47192	6.97977	505.90570	-14.16932	1308.23438	-961.54523	
4088	40.870	-800.59564	8.86121	-638.79468	769.39697	9.99486	-644.31628	-708.76599	7.96530	496.16055	733.56519	7.05672	505.85590	-14.26289	1308.17212	-961.41003	
4089	40.880	-800.65021	8.69874	-638.82263	769.43756	9.99987	-644.34363	-708.86169	8.00509	496.18262	733.52899	7.03482	505.84772	-14.18469	1308.04211	-961.28961	
4090	40.890	-800.63843	8.64519	-638.90228	769.42969	10.12842	-644.40192	-708.85107	8.00291	496.26770	733.50122	6.98627	505.86969	-14.09518	1307.95996	-961.30963	
4091	40.900	-800.49963	8.91279	-638.81500	769.37683	10.11168	-644.41492	-708.89362	8.01463	496.35474	733.57159	7.03458	505.85635	-14.11993	1308.00476	-961.51569	
4092	40.910	-800.50690	9.08607	-638.79218	769.35254	10.10826	-644.39777	-708.66693	7.98430	496.08295	733.59271	7.03921	505.84885	-14.00892	1308.12842	-961.92548	
